<svg xmlns="http://www.w3.org/2000/svg" viewBox="0 0 5310.05 933.34"><defs><style>.cls-1{isolation:isolate;}.cls-2,.cls-3,.cls-4{fill:#fff;}.cls-2{fill-rule:evenodd;}.cls-4{mix-blend-mode:overlay;}</style></defs><g class="cls-1"><g id="Layer_2" data-name="Layer 2"><g id="Foreground"><polygon class="cls-2" points="2805.18 338.73 2521.9 852.6 2385.37 852.6 2805.18 80.74 3224.99 852.6 3088.46 852.6 2805.18 338.73"/><polygon class="cls-2" points="2113.16 594.61 2396.45 80.74 2532.97 80.74 2113.16 852.6 1693.36 80.74 1829.88 80.74 2113.16 594.61"/><path class="cls-3" d="M596.44,564.52V218.05l125-144.68V391.05ZM118,372.43V860H0V73.37L721.48,860H557.42Z"/><path class="cls-3" d="M1445.65,415.2a63.11,63.11,0,0,0-44.94,107.49c-20.06,84-95.68,146.58-185.73,146.58-105.27,0-190.89-85.62-190.89-190.9,0-89.6,60.85-165.5,146.59-185.7a63.17,63.17,0,1,0-8.49-79.56C1035.5,238.07,944.55,348,944.55,478.37c0,149.14,121.3,270.44,270.43,270.44,131.07,0,240.61-93.69,265.21-217.6a63.13,63.13,0,0,0-34.54-116ZM1215,218.62a29.09,29.09,0,1,1-29.08,29.09A29.12,29.12,0,0,1,1215,218.62Zm230.67,230.66a29.09,29.09,0,1,1-29.09,29.09A29.15,29.15,0,0,1,1445.65,449.28Z"/><path class="cls-3" d="M1693.36,478.37a63.18,63.18,0,1,0-105.89,46.42c-23.1,188.12-181.77,329-372.49,329-207,0-375.42-168.41-375.42-375.43,0-189.48,143-349.53,328.94-372.55a63.16,63.16,0,1,0-4.74-79.48C935.94,52,760,247.05,760,478.37c0,250.87,204.1,455,455,455,232.78,0,426.22-173.24,452-403.74A63.09,63.09,0,0,0,1693.36,478.37ZM1215,34.09a29.09,29.09,0,1,1-29.08,29.09A29.12,29.12,0,0,1,1215,34.09Zm415.2,415.2a29.09,29.09,0,1,1-29.09,29.08A29.11,29.11,0,0,1,1630.18,449.29Z"/><path class="cls-3" d="M1509.34,23.86a160.13,160.13,0,0,0-160,155.27c-.09,1.08.29,14.78.34,22.39.4,92.32-65.39,169.42-152.83,186.41-.17.05-.39.05-.62.11A92.24,92.24,0,1,0,1305.38,497c16.7-87.26,93.4-153.23,185.55-153.23,3.29,0,6.59.06,9.83.23.11,0,.23.06.34,0,2.73.17,5.45.23,8.24.23a32.88,32.88,0,0,0,3.29-.11,160.12,160.12,0,0,0-3.29-320.21ZM1215,526.18a46.13,46.13,0,1,1,46.14-46.13A46.13,46.13,0,0,1,1215,526.18Zm293.85-266.94A75.22,75.22,0,1,1,1584.05,184,75.23,75.23,0,0,1,1508.83,259.24Z"/><path class="cls-4" d="M1624.56,506.9c-13.55,216.26-193.27,387.36-412.9,387.36-228.57,0-413.79-185.22-413.79-413.8,0-220,171.59-399.84,388.34-413a29.09,29.09,0,0,0,57.47.41c11.41.82,22.66,2.21,33.83,4a63.06,63.06,0,0,1-109,33.91c-185.88,23-328.91,183.09-328.91,372.58,0,207,168.4,375.37,375.38,375.37,190.72,0,349.42-140.89,372.5-329a63.11,63.11,0,0,1,33-108.87c1.72,11.17,3,22.5,3.86,33.91a29.1,29.1,0,0,0,.25,57.06Z"/><path class="cls-4" d="M1509.37,23.89a160.09,160.09,0,0,0-160.1,155.26c-.09,1.06.32,14.77.32,22.33a188.07,188.07,0,0,1-56.24,135.39,228.71,228.71,0,0,0,62.89,63.3,188.33,188.33,0,0,1,134.65-56.41c3.37,0,6.65,0,9.85.17.17,0,.25.08.33,0,2.79.16,5.5.24,8.3.24,1.06,0,2.21,0,3.28-.08a160.12,160.12,0,0,0-3.28-320.2Zm-.58,235.39A75.25,75.25,0,1,1,1584.08,184,75.27,75.27,0,0,1,1508.79,259.28Z"/><polygon class="cls-2" points="5283.84 73.38 5035.95 375.14 5310.05 859.49 5175.37 859.49 4956.09 471.8 4847.65 602.82 4721.31 776.28 4721.31 220.93 4847.65 73.38 4847.65 429.92 5138.44 73.38 5283.84 73.38"/><path class="cls-3" d="M4037.22,747.81h446.71L4377.74,858.42H3915.13Zm0-673.37h446.71L4377.74,185.07H3915.13Zm0,324.64h446.71L4377.74,509.7H3915.13Z"/><polygon class="cls-2" points="3120.99 183.99 3230.72 73.37 3887.06 73.37 3743.17 183.99 3580.66 183.99 3580.66 859.5 3454.34 859.5 3454.34 183.99 3120.99 183.99"/></g></g></g></svg>